<svg xmlns="http://www.w3.org/2000/svg" aria-labelledby="title desc" viewBox="0 0 1024 1024"><title>IK monogram</title><desc>Letterforms I and K with grid texture and a blue to magenta gradient</desc><defs><linearGradient id="k" x1="245" x2="400" y1="760" y2="234" gradientUnits="userSpaceOnUse"><stop offset="0" stop-color="#2f6bff"/><stop offset=".5" stop-color="#5c5dff"/><stop offset=".8" stop-color="#9c82ff"/><stop offset="1" stop-color="#c39cff"/></linearGradient><linearGradient id="f" x1="445" x2="830" y1="590" y2="290" gradientUnits="userSpaceOnUse"><stop offset="0" stop-color="#9c3fe0"/><stop offset=".3" stop-color="#e62ecc"/><stop offset="1" stop-color="#ff49c4"/></linearGradient><linearGradient id="i" x1="600" x2="790" y1="560" y2="800" gradientUnits="userSpaceOnUse"><stop offset="0" stop-color="#ffb1f4" stop-opacity="0"/><stop offset="1" stop-color="#ffa9f0" stop-opacity=".8"/></linearGradient><linearGradient id="e" x1="0" x2="0" y1="234" y2="760" gradientUnits="userSpaceOnUse"><stop offset="0" stop-color="#b27cf0"/><stop offset="1" stop-color="#6a35c8"/></linearGradient><linearGradient id="c" x1="0" x2="0" y1="250" y2="720" gradientUnits="userSpaceOnUse"><stop offset="0" stop-color="#c45fdc"/><stop offset=".6" stop-color="#5b27b8"/><stop offset="1" stop-color="#3d14a0"/></linearGradient><path id="a" d="M257 234h112a12 12 0 0 1 12 12v525a12 12 0 0 1-12 12H257a12 12 0 0 1-12-12V246a12 12 0 0 1 12-12"/><path id="b" d="M384 234h13l20 216 228-210 185-4 4 16-261 259 234 254-1 10-156 2-115-123-56-41-23 2-56 37-2 12-7 81-7-53Z"/><path id="g" d="m400 458 245-218 185-4 4 16-261 259 234 254-1 10-156 2-115-123-56-41-23 2-56 37Z"/><clipPath id="m"><use href="#a"/></clipPath><clipPath id="d"><use href="#b"/></clipPath><pattern id="l" width="21.5" height="21.5" patternUnits="userSpaceOnUse"><path fill="none" stroke="#fff" stroke-opacity=".6" stroke-width="2.4" d="M21.5 0H0v21.5"/></pattern><pattern id="j" width="30.4" height="30.4" patternUnits="userSpaceOnUse"><path fill="none" stroke="#fff" stroke-opacity=".6" stroke-width="2.4" d="m0 0 30.4 30.4m0-30.4L0 30.4"/></pattern></defs><use fill="none" stroke="#f33fc8" stroke-opacity=".1" stroke-width="24" href="#b"/><use fill="none" stroke="#f33fc8" stroke-opacity=".1" stroke-width="12" href="#b"/><use fill="url(#c)" href="#b"/><g clip-path="url(#d)"><path fill="url(#e)" d="M386 234h8v526h-8z"/></g><use fill="url(#f)" href="#g"/><use fill="url(#i)" href="#g"/><path fill="#2b0a85" fill-opacity=".7" d="m424 612 44-34 56 62-45-27-23 2Z"/><use fill="url(#j)" href="#g"/><g clip-path="url(#d)"><path stroke="#fff" stroke-opacity=".2" stroke-width="22" d="m490 464 330-281M545 568l270 283"/><path stroke="#fff" stroke-opacity=".9" stroke-width="12" d="m490 464 330-281M545 568l270 283"/><path fill="#7c1fa8" fill-opacity=".6" d="m807 765-157 12 8 17 156-14Z"/><path fill="#c4128f" fill-opacity=".5" d="M834 252 573 511l12 12 261-261Z"/></g><use fill="none" stroke="#fff" stroke-opacity=".1" stroke-width="10" href="#b"/><use fill="none" stroke="#fff" stroke-opacity=".2" stroke-width="1.5" href="#b"/><path fill="none" stroke="#fff" stroke-opacity=".8" stroke-width="3.5" d="m400 458 245-218 185-4 4 16-261 259 234 254-1 10-156 2-115-123-56-41-23 2-56 37"/><use fill="none" stroke="#6e86ff" stroke-opacity=".1" stroke-width="24" href="#a"/><use fill="none" stroke="#6e86ff" stroke-opacity=".2" stroke-width="12" href="#a"/><use fill="url(#k)" href="#a"/><use fill="url(#l)" href="#a"/><g stroke="#fff" clip-path="url(#m)"><path stroke-opacity=".3" stroke-width="10" d="M245 303h136M245 648h136"/><path stroke-opacity=".9" stroke-width="5" d="M245 303h136M245 648h136"/></g><use fill="none" stroke="#fff" stroke-opacity=".1" stroke-width="10" href="#a"/><use fill="none" stroke="#fff" stroke-opacity=".8" stroke-width="3.5" href="#a"/><path fill="#fff" fill-opacity=".9" d="M384 277q3 22 26 26-23 4-26 26-3-22-26-26 23-4 26-26m0 350q2.5 18 21 21-18.5 3-21 21-2.5-18-21-21 18.5-3 21-21"/></svg>
