<svg xmlns="http://www.w3.org/2000/svg" aria-labelledby="t d" viewBox="0 0 1024 1024"><title>IkoniK app icon</title><desc>Violet squircle app icon with a beveled frame, a recessed screen split light-left to dark-right, a graph grid, a pink-to-cyan spline of three glowing nodes, the IkoniK wordmark, and a peeling page-curl corner.</desc><defs><linearGradient id="b" x1="0" x2="1" y1="0" y2="1"><stop offset="0" stop-color="#7b4fe6"/><stop offset=".5" stop-color="#4d32c8"/><stop offset="1" stop-color="#2c2294"/></linearGradient><linearGradient id="c" x1="0" x2="1" y1="0" y2="1"><stop offset="0" stop-color="#c49af8"/><stop offset=".5" stop-color="#8a55ee"/><stop offset=".8" stop-color="#4e33c8"/><stop offset="1" stop-color="#3a2bb0"/></linearGradient><linearGradient id="d" x1="0" x2="0" y1="0" y2="1"><stop offset="0" stop-color="#efe2fd"/><stop offset=".3" stop-color="#efe2fd" stop-opacity="0"/></linearGradient><linearGradient id="g" x1="0" x2="0" y1="0" y2="1"><stop offset="0" stop-color="#9a63f4"/><stop offset="1" stop-color="#532fd6"/></linearGradient><linearGradient id="h" x1="0" x2="1" y1="0" y2="1"><stop offset="0" stop-color="#4a2fc8"/><stop offset=".6" stop-color="#281aa4"/><stop offset="1" stop-color="#0e0967"/></linearGradient><linearGradient id="s" x1="0" x2="0" y1="0" y2="1"><stop offset="0" stop-color="#fff"/><stop offset="1" stop-color="#e3d2fa"/></linearGradient><linearGradient id="k" x1=".3" x2=".5" y1="-.1" y2="1"><stop offset="0" stop-color="#ecd3fc"/><stop offset=".5" stop-color="#a972f0"/><stop offset="1" stop-color="#8351de"/></linearGradient><linearGradient id="l" x1=".2" x2=".9" y1="0" y2="1"><stop offset=".4" stop-color="#5b33c0" stop-opacity="0"/><stop offset="1" stop-color="#3a2390" stop-opacity=".8"/></linearGradient><linearGradient id="o" x1="0" x2="1" y1="0" y2="0"><stop offset="0" stop-color="#f063c4"/><stop offset="1" stop-color="#cf63ce"/></linearGradient><linearGradient id="p" x1="0" x2="1" y1="0" y2="0"><stop offset="0" stop-color="#a07be6"/><stop offset="1" stop-color="#5fc7f1"/></linearGradient><radialGradient id="j" cx=".2" cy=".2" r=".6"><stop offset="0" stop-color="#d993fc"/><stop offset=".6" stop-color="#b86ff6" stop-opacity=".5"/><stop offset="1" stop-color="#b86ff6" stop-opacity="0"/></radialGradient><radialGradient id="i" cx=".8" cy=".9" r=".6"><stop offset="0" stop-color="#0e0a5e" stop-opacity=".6"/><stop offset="1" stop-color="#0e0a5e" stop-opacity="0"/></radialGradient><radialGradient id="n" cx=".5" cy=".5" r=".5"><stop offset="0" stop-color="#fbefff" stop-opacity=".8"/><stop offset="1" stop-color="#fbefff" stop-opacity="0"/></radialGradient><radialGradient id="r" cx=".5" cy=".4" r=".6"><stop offset="0" stop-color="#fff"/><stop offset=".4" stop-color="#fbbdec"/><stop offset="1" stop-color="#e579c5"/></radialGradient><radialGradient id="q" cx=".5" cy=".5" r=".5"><stop offset="0" stop-color="#ffcaf1" stop-opacity=".9"/><stop offset="1" stop-color="#ffcaf1" stop-opacity="0"/></radialGradient><clipPath id="m"><path d="M649 597q27-21 57-24 74 3 125 43-19 52-53 96-34 40-77 60-37 12-61-6-24-14-22-36 10-6 16-30 7-50 15-103"/></clipPath><clipPath id="f"><path d="m882 531-.3 113-1.1 39.7-1.7 29.1-2.4 23.8-3.2 20.3-3.8 17.8-4.6 15.8-5.3 14.2-6.1 12.9-6.9 11.6-7.8 10.5-8.6 9.5-9.5 8.6-10.5 7.8-11.6 6.9-12.9 6.1-14.2 5.3-15.8 4.6-17.8 3.8-20.3 3.2-23.8 2.4-29.1 1.7-39.7 1.1-113 .3-113-.3-39.7-1.1-29.1-1.7-23.8-2.4-20.3-3.2-17.8-3.8-15.8-4.6-14.2-5.3-12.9-6.1-11.6-6.9-10.5-7.8-9.5-8.6-8.6-9.5-7.8-10.5-6.9-11.6-6.1-12.9-5.3-14.2-4.6-15.8-3.8-17.8-3.2-20.3-2.4-23.8-1.7-29.1-1.1-39.7-.3-113 .3-113 1.1-39.7 1.7-29.1 2.4-23.8 3.2-20.3 3.8-17.8 4.6-15.8 5.3-14.2 6.1-12.9 6.9-11.6 7.8-10.5 8.6-9.5 9.5-8.6 10.5-7.8 11.6-6.9 12.9-6.1 14.2-5.3 15.8-4.6 17.8-3.8 20.3-3.2 23.8-2.4 29.1-1.7 39.7-1.1 113-.3 113 .3 39.7 1.1 29.1 1.7 23.8 2.4 20.3 3.2 17.8 3.8 15.8 4.6 14.2 5.3 12.9 6.1 11.6 6.9 10.5 7.8 9.5 8.6 8.6 9.5 7.8 10.5 6.9 11.6 6.1 12.9 5.3 14.2 4.6 15.8 3.8 17.8 3.2 20.3 2.4 23.8 1.7 29.1 1.1 39.7Z"/></clipPath><filter id="e" width="180%" height="180%" x="-40%" y="-40%"><feGaussianBlur stdDeviation="3.2"/></filter><filter id="a" width="200%" height="200%" x="-50%" y="-50%"><feGaussianBlur stdDeviation="6"/></filter></defs><path fill="#160c52" d="m988 528-.4 159.9-1.2 50.9-2.1 36.8-2.9 29.6-3.7 25.1-4.5 21.8-5.5 19.4-6.3 17.2-7.3 15.6-8.2 14-9.2 12.7-10.3 11.4-11.4 10.3-12.7 9.2-14 8.2-15.6 7.3-17.2 6.3-19.4 5.5-21.8 4.5-25.1 3.7-29.6 2.9-36.8 2.1-50.9 1.2-159.9.4-159.9-.4-50.9-1.2-36.8-2.1-29.6-2.9-25.1-3.7-21.8-4.5-19.4-5.5-17.2-6.3-15.6-7.3-14-8.2-12.7-9.2-11.4-10.3L87.3 931l-9.2-12.7-8.2-14-7.3-15.6-6.3-17.2-5.5-19.4-4.5-21.8-3.7-25.1-2.9-29.6-2.1-36.8-1.2-50.9L36 528l.4-159.9 1.2-50.9 2.1-36.8 2.9-29.6 3.7-25.1 4.5-21.8 5.5-19.4 6.3-17.2 7.3-15.6 8.2-14 9.2-12.7 10.3-11.4 11.4-10.3 12.7-9.2 14-8.2 15.6-7.3 17.2-6.3 19.4-5.5 21.8-4.5 25.1-3.7 29.6-2.9 36.8-2.1 50.9-1.2L512 52l159.9.4 50.9 1.2 36.8 2.1 29.6 2.9 25.1 3.7 21.8 4.5 19.4 5.5 17.2 6.3 15.6 7.3 14 8.2 12.7 9.2 11.4 10.3 10.3 11.4 9.2 12.7 8.2 14 7.3 15.6 6.3 17.2 5.5 19.4 4.5 21.8 3.7 25.1 2.9 29.6 2.1 36.8 1.2 50.9Z" filter="url(#a)" opacity=".3" transform="translate(0 16)"/><path fill="url(#b)" d="m988 528-.4 159.9-1.2 50.9-2.1 36.8-2.9 29.6-3.7 25.1-4.5 21.8-5.5 19.4-6.3 17.2-7.3 15.6-8.2 14-9.2 12.7-10.3 11.4-11.4 10.3-12.7 9.2-14 8.2-15.6 7.3-17.2 6.3-19.4 5.5-21.8 4.5-25.1 3.7-29.6 2.9-36.8 2.1-50.9 1.2-159.9.4-159.9-.4-50.9-1.2-36.8-2.1-29.6-2.9-25.1-3.7-21.8-4.5-19.4-5.5-17.2-6.3-15.6-7.3-14-8.2-12.7-9.2-11.4-10.3L87.3 931l-9.2-12.7-8.2-14-7.3-15.6-6.3-17.2-5.5-19.4-4.5-21.8-3.7-25.1-2.9-29.6-2.1-36.8-1.2-50.9L36 528l.4-159.9 1.2-50.9 2.1-36.8 2.9-29.6 3.7-25.1 4.5-21.8 5.5-19.4 6.3-17.2 7.3-15.6 8.2-14 9.2-12.7 10.3-11.4 11.4-10.3 12.7-9.2 14-8.2 15.6-7.3 17.2-6.3 19.4-5.5 21.8-4.5 25.1-3.7 29.6-2.9 36.8-2.1 50.9-1.2L512 52l159.9.4 50.9 1.2 36.8 2.1 29.6 2.9 25.1 3.7 21.8 4.5 19.4 5.5 17.2 6.3 15.6 7.3 14 8.2 12.7 9.2 11.4 10.3 10.3 11.4 9.2 12.7 8.2 14 7.3 15.6 6.3 17.2 5.5 19.4 4.5 21.8 3.7 25.1 2.9 29.6 2.1 36.8 1.2 50.9Z"/><path fill="url(#c)" d="m964 529-.4 148.5-1.2 48.4-2 35.1-2.8 28.3-3.5 24.1-4.5 21-5.2 18.6-6.2 16.6-7 15-8 13.5-8.9 12.2-9.9 11.1-11.1 9.9-12.2 8.9-13.5 8-15 7-16.6 6.2-18.6 5.2-21 4.5-24.1 3.5-28.3 2.8-35.1 2-48.4 1.2-148.5.4-148.5-.4-48.4-1.2-35.1-2-28.3-2.8-24.1-3.5-21-4.5-18.6-5.2-16.6-6.2-15-7-13.5-8-12.2-8.9-11.1-9.9-9.9-11.1-8.9-12.2-8-13.5-7-15-6.2-16.6-5.2-18.6-4.5-21-3.5-24.1-2.8-28.3-2-35.1-1.2-48.4L60 529l.4-148.5 1.2-48.4 2-35.1 2.8-28.3 3.5-24.1 4.5-21 5.2-18.6 6.2-16.6 7-15 8-13.5 8.9-12.2 9.9-11.1 11.1-9.9 12.2-8.9 13.5-8 15-7 16.6-6.2 18.6-5.2 21-4.5 24.1-3.5 28.3-2.8 35.1-2 48.4-1.2L512 77l148.5.4 48.4 1.2 35.1 2 28.3 2.8 24.1 3.5 21 4.5 18.6 5.2 16.6 6.2 15 7 13.5 8 12.2 8.9 11.1 9.9 9.9 11.1 8.9 12.2 8 13.5 7 15 6.2 16.6 5.2 18.6 4.5 21 3.5 24.1 2.8 28.3 2 35.1 1.2 48.4Z"/><path fill="url(#d)" d="m964 529-.4 148.5-1.2 48.4-2 35.1-2.8 28.3-3.5 24.1-4.5 21-5.2 18.6-6.2 16.6-7 15-8 13.5-8.9 12.2-9.9 11.1-11.1 9.9-12.2 8.9-13.5 8-15 7-16.6 6.2-18.6 5.2-21 4.5-24.1 3.5-28.3 2.8-35.1 2-48.4 1.2-148.5.4-148.5-.4-48.4-1.2-35.1-2-28.3-2.8-24.1-3.5-21-4.5-18.6-5.2-16.6-6.2-15-7-13.5-8-12.2-8.9-11.1-9.9-9.9-11.1-8.9-12.2-8-13.5-7-15-6.2-16.6-5.2-18.6-4.5-21-3.5-24.1-2.8-28.3-2-35.1-1.2-48.4L60 529l.4-148.5 1.2-48.4 2-35.1 2.8-28.3 3.5-24.1 4.5-21 5.2-18.6 6.2-16.6 7-15 8-13.5 8.9-12.2 9.9-11.1 11.1-9.9 12.2-8.9 13.5-8 15-7 16.6-6.2 18.6-5.2 21-4.5 24.1-3.5 28.3-2.8 35.1-2 48.4-1.2L512 77l148.5.4 48.4 1.2 35.1 2 28.3 2.8 24.1 3.5 21 4.5 18.6 5.2 16.6 6.2 15 7 13.5 8 12.2 8.9 11.1 9.9 9.9 11.1 8.9 12.2 8 13.5 7 15 6.2 16.6 5.2 18.6 4.5 21 3.5 24.1 2.8 28.3 2 35.1 1.2 48.4Z" opacity=".8"/><path fill="none" stroke="#f3e7fd" stroke-linecap="round" stroke-width="6" d="M150 120q362-42 724 0" filter="url(#e)" opacity=".5"/><path fill="#170c54" d="m890 531-.4 115.5-1 40.5-1.8 29.7-2.5 24.3-3.2 20.8-3.9 18.2-4.7 16.1-5.4 14.5-6.2 13.2-7.1 11.8-7.9 10.8-8.8 9.7-9.7 8.8-10.8 7.9-11.8 7.1-13.2 6.2-14.5 5.4-16.1 4.7-18.2 3.9-20.8 3.2-24.3 2.5-29.7 1.8-40.5 1-115.5.4-115.5-.4-40.5-1-29.7-1.8-24.3-2.5-20.8-3.2-18.2-3.9-16.1-4.7-14.5-5.4-13.2-6.2-11.8-7.1-10.8-7.9-9.7-8.8-8.8-9.7-7.9-10.8-7.1-11.8-6.2-13.2-5.4-14.5-4.7-16.1-3.9-18.2-3.2-20.8-2.5-24.3-1.8-29.7-1-40.5L134 531l.4-115.5 1-40.5 1.8-29.7 2.5-24.3 3.2-20.8 3.9-18.2 4.7-16.1 5.4-14.5 6.2-13.2 7.1-11.8 7.9-10.8 8.8-9.7 9.7-8.8 10.8-7.9 11.8-7.1 13.2-6.2 14.5-5.4 16.1-4.7 18.2-3.9 20.8-3.2 24.3-2.5 29.7-1.8 40.5-1L512 153l115.5.4 40.5 1 29.7 1.8 24.3 2.5 20.8 3.2 18.2 3.9 16.1 4.7 14.5 5.4 13.2 6.2 11.8 7.1 10.8 7.9 9.7 8.8 8.8 9.7 7.9 10.8 7.1 11.8 6.2 13.2 5.4 14.5 4.7 16.1 3.9 18.2 3.2 20.8 2.5 24.3 1.8 29.7 1 40.5Z" opacity=".8"/><g clip-path="url(#f)"><path fill="url(#g)" d="m882 531-.3 113-1.1 39.7-1.7 29.1-2.4 23.8-3.2 20.3-3.8 17.8-4.6 15.8-5.3 14.2-6.1 12.9-6.9 11.6-7.8 10.5-8.6 9.5-9.5 8.6-10.5 7.8-11.6 6.9-12.9 6.1-14.2 5.3-15.8 4.6-17.8 3.8-20.3 3.2-23.8 2.4-29.1 1.7-39.7 1.1-113 .3-113-.3-39.7-1.1-29.1-1.7-23.8-2.4-20.3-3.2-17.8-3.8-15.8-4.6-14.2-5.3-12.9-6.1-11.6-6.9-10.5-7.8-9.5-8.6-8.6-9.5-7.8-10.5-6.9-11.6-6.1-12.9-5.3-14.2-4.6-15.8-3.8-17.8-3.2-20.3-2.4-23.8-1.7-29.1-1.1-39.7-.3-113 .3-113 1.1-39.7 1.7-29.1 2.4-23.8 3.2-20.3 3.8-17.8 4.6-15.8 5.3-14.2 6.1-12.9 6.9-11.6 7.8-10.5 8.6-9.5 9.5-8.6 10.5-7.8 11.6-6.9 12.9-6.1 14.2-5.3 15.8-4.6 17.8-3.8 20.3-3.2 23.8-2.4 29.1-1.7 39.7-1.1 113-.3 113 .3 39.7 1.1 29.1 1.7 23.8 2.4 20.3 3.2 17.8 3.8 15.8 4.6 14.2 5.3 12.9 6.1 11.6 6.9 10.5 7.8 9.5 8.6 8.6 9.5 7.8 10.5 6.9 11.6 6.1 12.9 5.3 14.2 4.6 15.8 3.8 17.8 3.2 20.3 2.4 23.8 1.7 29.1 1.1 39.7Z"/><path fill="url(#h)" d="M492 110h470v840H492z"/><path fill="url(#i)" d="M140 150h800v800H140z"/><ellipse cx="232" cy="232" fill="url(#j)" opacity=".7" rx="340" ry="300"/><path fill="none" stroke="#b79bf3" stroke-width="2.4" d="M150 196v624m38-624v624m38-624v624m38-624v624m38-624v624m38-624v624m38-624v624m38-624v624m38-624v624m38-624v624M150 196h342m-342 38h342m-342 38h342m-342 38h342m-342 38h342m-342 38h342m-342 38h342m-342 38h342m-342 38h342m-342 38h342m-342 38h342m-342 38h342m-342 38h342m-342 38h342m-342 38h342m-342 38h342m-342 38h342" opacity=".3"/><path fill="#c9a8fa" d="M489 150h6v800h-6z" opacity=".2"/><path fill="none" stroke="#130a4e" stroke-width="14" d="m882 531-.3 113-1.1 39.7-1.7 29.1-2.4 23.8-3.2 20.3-3.8 17.8-4.6 15.8-5.3 14.2-6.1 12.9-6.9 11.6-7.8 10.5-8.6 9.5-9.5 8.6-10.5 7.8-11.6 6.9-12.9 6.1-14.2 5.3-15.8 4.6-17.8 3.8-20.3 3.2-23.8 2.4-29.1 1.7-39.7 1.1-113 .3-113-.3-39.7-1.1-29.1-1.7-23.8-2.4-20.3-3.2-17.8-3.8-15.8-4.6-14.2-5.3-12.9-6.1-11.6-6.9-10.5-7.8-9.5-8.6-8.6-9.5-7.8-10.5-6.9-11.6-6.1-12.9-5.3-14.2-4.6-15.8-3.8-17.8-3.2-20.3-2.4-23.8-1.7-29.1-1.1-39.7-.3-113 .3-113 1.1-39.7 1.7-29.1 2.4-23.8 3.2-20.3 3.8-17.8 4.6-15.8 5.3-14.2 6.1-12.9 6.9-11.6 7.8-10.5 8.6-9.5 9.5-8.6 10.5-7.8 11.6-6.9 12.9-6.1 14.2-5.3 15.8-4.6 17.8-3.8 20.3-3.2 23.8-2.4 29.1-1.7 39.7-1.1 113-.3 113 .3 39.7 1.1 29.1 1.7 23.8 2.4 20.3 3.2 17.8 3.8 15.8 4.6 14.2 5.3 12.9 6.1 11.6 6.9 10.5 7.8 9.5 8.6 8.6 9.5 7.8 10.5 6.9 11.6 6.1 12.9 5.3 14.2 4.6 15.8 3.8 17.8 3.2 20.3 2.4 23.8 1.7 29.1 1.1 39.7Z" filter="url(#e)" opacity=".5"/><path fill="#0c0840" d="M806 626q46 64 40 146-6 52-54 66-52 12-102-12 58-24 94-74 28-52 22-126" filter="url(#e)" opacity=".6"/><path fill="url(#k)" d="M649 597q27-21 57-24 74 3 125 43-19 52-53 96-34 40-77 60-37 12-61-6-24-14-22-36 10-6 16-30 7-50 15-103"/><path fill="#9667e6" d="M640 766q-24-14-22-36 2-14 18-18-10 10-10 28 2 16 14 26"/><path fill="url(#l)" d="M649 597q27-21 57-24 74 3 125 43-19 52-53 96-34 40-77 60-37 12-61-6-24-14-22-36 10-6 16-30 7-50 15-103" opacity=".5"/><g clip-path="url(#m)"><ellipse cx="690" cy="600" fill="url(#n)" rx="74" ry="60"/></g><path fill="none" stroke="#5a36be" stroke-width="5" d="M649 597q-8 55-15 105-6 26-2 56" filter="url(#e)" opacity=".3"/><path fill="none" stroke="#f8ecfe" stroke-linecap="round" stroke-width="3.6" d="M649 597q27-21 57-24 74 3 125 43" opacity=".9"/><path fill="none" stroke="#ecd8fb" stroke-linecap="round" stroke-width="2.6" d="M649 597q-8 53-15 103-6 24-16 30" opacity=".6"/></g><path fill="none" stroke="url(#o)" stroke-linecap="round" stroke-width="9" d="M122 418q74 8 154-10"/><path fill="none" stroke="url(#p)" stroke-linecap="round" stroke-width="9" d="M276 408q108-12 156 6 38 14 66-16"/><circle cx="276" cy="408" r="52" fill="url(#q)"/><circle cx="122" cy="418" r="19" fill="url(#r)"/><circle cx="276" cy="408" r="29" fill="url(#r)"/><circle cx="498" cy="398" r="16" fill="url(#r)"/><g filter="url(#e)" opacity=".5" transform="translate(537.8 335.2)scale(.384)"><g fill="#cfa9ff"><path d="M119.2 1c-13.7.4-15.5.7-16.8 2.4-1.2 1.7-1.4 25.6-1.4 163.1 0 100.3.4 161.5.9 162s12.3.9 29 .7l28.1-.3.2-52.2c.3-57.3.4-57.6 5.8-46.7 1.6 3 3.1 6.2 3.4 7s1.5 2.8 2.6 4.5c1 1.6 3.5 6.2 5.5 10.1 1.9 3.9 4.5 8.7 5.8 10.5s3.3 5.4 4.6 7.9c2.8 5.6 7.8 14.9 11.6 21.5l7.1 13.2 5.3 10 1.6 3.3q1 2.4 4.9 8.2l1.8 2.8h27.9c31.4 0 29.7.5 25.9-7.5l-2-4.8c0-.5-1.3-2.7-2.8-5a44 44 0 0 1-3.5-5.7l-2.6-4.5c-1.1-1.7-3.4-5.7-5.1-9a83 83 0 0 0-4.6-7.6 5 5 0 0 1-1.4-3.1c0-.9-.7-2.1-1.5-2.8s-1.5-2-1.5-3q-.2-1.7-1.5-2.4a3 3 0 0 1-1.5-2.2c0-1-.6-2.5-1.4-3.3a88 88 0 0 1-5.7-10.1 52 52 0 0 0-5.1-8.8c-.5-.2-.8-1.2-.8-2.2s-.6-2.3-1.3-2.7-2.9-4.2-5-8.3l-6.7-12.5c-8.9-15.1-9.2-17.1-4.2-24.8l3.7-6a148 148 0 0 1 13.5-19.8 29 29 0 0 1 3.5-6.3c1.9-2.9 3.5-5.6 3.5-6a32 32 0 0 1 3-4.8c1.7-2.2 3-4.7 3-5.5q.1-1.2 1-1.3t2-2.5 2-2.5 1-1.3a26 26 0 0 1 4-7c2.2-3 4-6 4-6.5q.1-.9 1.5-1.6 1.3-.6 1.5-2 0-1.3.8-1.8c.4-.2 1.7-1.8 3-3.6 3.9-5.5 2.3-6.2-13.7-6.1-23.1.1-35.3 1.2-37.8 3.4-1.3 1.1-2.3 2.3-2.3 2.8a9 9 0 0 1-2.3 3.2 45 45 0 0 0-4.2 6.2 16 16 0 0 1-3.2 4.6 3 3 0 0 0-1.3 2.2q0 1.4-1 1.5t-1 1.1c0 1.1-3.1 6.1-10.6 17.4a25 25 0 0 0-3.4 6.2q-.1 1.2-1.3 2a16 16 0 0 0-3.2 4.8c-1.1 2.2-3 5.4-4.2 7.1a12 12 0 0 0-2.3 4.2q0 1.1-.9 1.2c-.5 0-1.4 1.4-2 3-.5 1.7-1.4 3-1.8 3s-1.4 1.4-2.2 3c-1.9 4.4-6.1 9.1-7.3 8.4-.7-.5-.9-31.9-.7-99 .2-54 .1-98.6-.3-99-.9-.9-19.2-1.1-39.6-.4M2.4 10.1C.5 12.2.5 15.6.8 171.4c.2 87.5.6 159.4.9 159.8.2.5 14.5.8 31.7.8 29.1 0 31.4-.1 32.9-1.8 1.6-1.7 1.7-14 1.5-161.8L67.5 8.5l-31.6-.3C4.8 8 4.3 8 2.4 10.1M725 9.4q-.2 1.3-1.2 1.9c-1 .3-1.3 32.8-1.1 158.6.1 87.1.5 158.6.8 159 .7.7 57 1 59.8.3 1.6-.4 1.7-4.5 1.7-69.1 0-61.3.4-73.2 2.3-71.1l4.6 9 5 10 6.5 12.5a52 52 0 0 0 3.6 6.5l2.5 4.5 7.4 14 8.5 16c1.7 3.3 3.7 6.6 4.3 7.3.7.7 1.3 2.2 1.3 3.2s.4 2 .8 2.2c.5.1 3.2 5 6 10.8a174 174 0 0 0 12.1 22.3c.6.6 1.1 1.9 1.1 2.9q0 1.6.8 1.8c.4 0 1.6 2 2.7 4.5s2.3 4.5 2.8 4.5q.6.2.7 1.2c0 .7 1.5 3 3.3 5.2l3.3 3.9 15.5.1c25.7.2 51.3-.7 53.2-1.8.9-.6 1.7-1.8 1.7-2.7a115 115 0 0 0-13.3-25.6 20 20 0 0 1-2.7-5.5 5 5 0 0 0-1.4-2.7c-.7-.9-2.8-4.4-4.6-7.9a39 39 0 0 0-4.1-6.8q-.8-.6-.9-2.4-.2-1.7-1.5-2.4c-.8-.3-1.5-1.5-1.5-2.6q0-1.8-.9-2c-.5 0-2-2.1-3.2-4.8a45 45 0 0 0-3.5-6.2c-.6-.8-3-5.1-5.4-9.5-2.3-4.4-4.6-8.5-5-9s-2.7-4.6-5-9a276 276 0 0 0-14.9-25.5q-.9-.7-5.4-9.3a23 23 0 0 0-2.7-4.7l-2.5-4.5a18 18 0 0 0-3.2-4.8c-.7-.4-1.3-1.6-1.3-2.6s-.7-2.4-1.5-3.1q-1.4-1.2-1.5-2.3c0-.6-.6-1.8-1.4-2.6a64 64 0 0 1-4.1-6.7l-2.9-5.2 4.6-6.8 16.6-26c1.2-2.2 3.1-5.3 4.2-6.9l3-5c.6-1.1 1.9-3.4 3-5l3-5c1.4-2.7 2.8-4.9 7.3-11.8 2-3.1 3.7-6.2 3.7-6.7q.1-1 1-1 1-.1 1-1.1c0-.6 1.8-3.6 4-6.6 2.2-3.1 4-6 4-6.5a26 26 0 0 1 3-5c1.7-2.2 3-4.7 3-5.5q.1-1.3 1.5-1.9 1.3-.7 1.5-2.4 0-1.8.9-2.4c.5-.3 1.9-2.5 3.1-4.8a24 24 0 0 1 2.9-4.8 32 32 0 0 0 2.6-4.5 16 16 0 0 1 3.2-4.8q1.2-.8 1.3-1.9c.1-1.1 1.4-3 3-5.5 1.7-2.4 3-4.8 3-5.3s.6-1.5 1.3-2.2c3.1-3.4 4.8-7.7 3.7-9.8-1-1.9-2-2-33.3-2l-32.2.1-3.2 4.4A21 21 0 0 0 858 18q0 .9-.9 1c-.5 0-1.2 1.2-1.6 2.7-.3 1.5-1 3-1.4 3.3-.7.5-14 22.9-15.4 26l-2.7 4.5c-1.1 1.6-2.9 4.8-4.1 7l-3.9 7-4.5 8A159 159 0 0 1 811 99.2a23 23 0 0 1-2.7 5.1c-1.5 2.3-3.7 6-4.8 8.2l-6.3 11.5a226 226 0 0 0-6.4 12.2q-2.3 4.7-4.1 4.8c-1.8 0-1.9-2.5-1.7-64.8.1-35.6.2-65.5.1-66.5C785 8.1 782.9 8 755 8c-25.2 0-30 .2-30 1.4m-65 21.1c-1.4.8-3.5 1.4-4.6 1.5-1.2 0-2.7.7-3.4 1.5q-1.2 1.3-2.5 1.5c-2.4 0-10.3 8.9-13.2 14.8A32.5 32.5 0 0 0 644 87c1 .5 2.4 1.6 3.2 2.2 1.6 1.5 7 4.1 11.9 5.7 4.4 1.4 14.6 1.5 15.4.1.3-.6 1.9-1 3.6-1 1.6 0 2.9-.4 2.9-1s1.1-1.2 2.5-1.6c2-.5 7.1-5.4 12.2-11.8 4.8-5.8 7.1-22.8 3.8-27.2-.8-1-1.5-2.5-1.5-3.3 0-2.8-8.3-12.1-12.5-14.1l-3.5-1.9c-6.4-3.8-17.6-5.1-22-2.6"/><path d="M341.9 109.4c-.4.4-4 1-8.1 1.5-5.5.6-9.7 1.9-16.1 5a34 34 0 0 0-8.7 5.1q-.1 1-1 1c-4.2 0-24 22.5-24 27.2q0 1.7-1 1.8t-1 1.8c0 1-.6 2.6-1.4 3.7A93 93 0 0 0 276 169l-4.1 13.4c-.5 1.6-.9 4.7-.9 7s-.7 6.3-1.5 9c-2.1 7-2.1 49.7 0 57.9.8 3.2 1.5 7.3 1.5 9.2s.6 4.9 1.4 6.7 2.2 5.8 3.1 8.8c1 3 2.2 5.9 2.6 6.4q.8 1.1.9 2.8t.9 1.8c.5 0 1.4 1.2 2 2.7 1.4 3.6 2.9 6 6.3 9.8a55 55 0 0 0 12.3 13.5 17 17 0 0 1 4.1 2.7 51 51 0 0 0 17.1 8.3c1.2 0 2.3.5 2.5 1.2.6 1.8 12.2 3.2 26.8 3.1 14.8-.1 20.9-.7 25.5-2.7 10.4-4.6 18.3-8.8 20-10.5 1-1.2 2.4-2.1 3.1-2.1q1.2 0 1.6-.9c.2-.5 2.3-3.1 4.8-5.8a88 88 0 0 0 18-29.8 208 208 0 0 0 8.6-86c-1-6.6-2.3-14-3.1-16.5l-3-10.5a84 84 0 0 0-29.8-44.5c-.5 0-1.5-.6-2.2-1.3a39 39 0 0 0-11.9-7.1c-4.4-2-10.9-4.1-14.5-4.7a124 124 0 0 0-26.2-1.5M364 155a45 45 0 0 1 10.4 23.5c1.3 6.9 3.6 34.7 3.6 44 0 10.4-2.3 37.3-3.9 46-3.2 17.8-11.6 27.5-23.6 27.5-9.2 0-14.7-5.2-20.6-19.5-5-12.2-7.3-47.9-4.9-75.5 1.1-12 3.5-27.1 4.9-30.5 4.7-11.3 8.6-16.9 13.2-18.8.8-.4 5-.5 9.4-.4 7.7.2 8.1.4 11.5 3.7m183.9-43c-2.6.4-7.7 2.2-11.3 3.9l-7.2 3.1q-.7 0-4.9 3.7-1.2 1.2-2.2 1.3a54 54 0 0 0-12.7 12.5c-3.2 3.5-4.2 2-5.6-8.5q-1.7-14-4.4-14h-24.5c-20.9.1-23.6.3-24.8 1.8-1.2 1.4-1.3 5.5-.7 23.2.4 11.8.8 58.8.8 104.5.1 45.7.5 83.6.9 84.2.6 1 7.2 1.3 27.2 1.3 24.1 0 26.3-.1 27-1.8.4-.9 1.1-33.2 1.5-71.7s1.1-71.7 1.5-73.7c.4-2.1 1.3-4.2 2.1-4.9.8-.6 1.4-1.7 1.4-2.3 0-1.8 6.9-8.8 10.8-10.8a41 41 0 0 1 16.3-4.8c7.2 0 15.2 5.2 18.2 11.8.9 2 1.3 22.5 1.7 80.2l.5 77.5h26.8c25.9.1 26.8 0 28.1-2 1.1-1.6 1.4-17.6 1.7-83.5.3-74.4.2-82-1.3-87.5-3.6-12.7-4.2-14.5-5-14.5q-.7-.2-.8-1.8c0-3.6-16.8-21.2-20.2-21.2-.4 0-3.2-1.1-6.3-2.5a61 61 0 0 0-34.6-3.5m92.2 5.9c-1.2.8-1.3 15.8-.8 104.6.5 75.2 1 104.1 1.8 105.1 1.6 1.9 50.1 2.1 51.7.1 1.2-1.5 2.1-207.6.9-209.5-1-1.4-51.3-1.7-53.6-.3"/></g></g><g fill="url(#s)" transform="translate(537.8 335.2)scale(.384)"><path d="M119.2 1c-13.7.4-15.5.7-16.8 2.4-1.2 1.7-1.4 25.6-1.4 163.1 0 100.3.4 161.5.9 162s12.3.9 29 .7l28.1-.3.2-52.2c.3-57.3.4-57.6 5.8-46.7 1.6 3 3.1 6.2 3.4 7s1.5 2.8 2.6 4.5c1 1.6 3.5 6.2 5.5 10.1 1.9 3.9 4.5 8.7 5.8 10.5s3.3 5.4 4.6 7.9c2.8 5.6 7.8 14.9 11.6 21.5l7.1 13.2 5.3 10 1.6 3.3q1 2.4 4.9 8.2l1.8 2.8h27.9c31.4 0 29.7.5 25.9-7.5l-2-4.8c0-.5-1.3-2.7-2.8-5a44 44 0 0 1-3.5-5.7l-2.6-4.5c-1.1-1.7-3.4-5.7-5.1-9a83 83 0 0 0-4.6-7.6 5 5 0 0 1-1.4-3.1c0-.9-.7-2.1-1.5-2.8s-1.5-2-1.5-3q-.2-1.7-1.5-2.4a3 3 0 0 1-1.5-2.2c0-1-.6-2.5-1.4-3.3a88 88 0 0 1-5.7-10.1 52 52 0 0 0-5.1-8.8c-.5-.2-.8-1.2-.8-2.2s-.6-2.3-1.3-2.7-2.9-4.2-5-8.3l-6.7-12.5c-8.9-15.1-9.2-17.1-4.2-24.8l3.7-6a148 148 0 0 1 13.5-19.8 29 29 0 0 1 3.5-6.3c1.9-2.9 3.5-5.6 3.5-6a32 32 0 0 1 3-4.8c1.7-2.2 3-4.7 3-5.5q.1-1.2 1-1.3t2-2.5 2-2.5 1-1.3a26 26 0 0 1 4-7c2.2-3 4-6 4-6.5q.1-.9 1.5-1.6 1.3-.6 1.5-2 0-1.3.8-1.8c.4-.2 1.7-1.8 3-3.6 3.9-5.5 2.3-6.2-13.7-6.1-23.1.1-35.3 1.2-37.8 3.4-1.3 1.1-2.3 2.3-2.3 2.8a9 9 0 0 1-2.3 3.2 45 45 0 0 0-4.2 6.2 16 16 0 0 1-3.2 4.6 3 3 0 0 0-1.3 2.2q0 1.4-1 1.5t-1 1.1c0 1.1-3.1 6.1-10.6 17.4a25 25 0 0 0-3.4 6.2q-.1 1.2-1.3 2a16 16 0 0 0-3.2 4.8c-1.1 2.2-3 5.4-4.2 7.1a12 12 0 0 0-2.3 4.2q0 1.1-.9 1.2c-.5 0-1.4 1.4-2 3-.5 1.7-1.4 3-1.8 3s-1.4 1.4-2.2 3c-1.9 4.4-6.1 9.1-7.3 8.4-.7-.5-.9-31.9-.7-99 .2-54 .1-98.6-.3-99-.9-.9-19.2-1.1-39.6-.4"/><path d="M2.4 10.1C.5 12.2.5 15.6.8 171.4c.2 87.5.6 159.4.9 159.8.2.5 14.5.8 31.7.8 29.1 0 31.4-.1 32.9-1.8 1.6-1.7 1.7-14 1.5-161.8L67.5 8.5l-31.6-.3C4.8 8 4.3 8 2.4 10.1"/><path d="M725 9.4q-.2 1.3-1.2 1.9c-1 .3-1.3 32.8-1.1 158.6.1 87.1.5 158.6.8 159 .7.7 57 1 59.8.3 1.6-.4 1.7-4.5 1.7-69.1 0-61.3.4-73.2 2.3-71.1l4.6 9 5 10 6.5 12.5a52 52 0 0 0 3.6 6.5l2.5 4.5 7.4 14 8.5 16c1.7 3.3 3.7 6.6 4.3 7.3.7.7 1.3 2.2 1.3 3.2s.4 2 .8 2.2c.5.1 3.2 5 6 10.8a174 174 0 0 0 12.1 22.3c.6.6 1.1 1.9 1.1 2.9q0 1.6.8 1.8c.4 0 1.6 2 2.7 4.5s2.3 4.5 2.8 4.5q.6.2.7 1.2c0 .7 1.5 3 3.3 5.2l3.3 3.9 15.5.1c25.7.2 51.3-.7 53.2-1.8.9-.6 1.7-1.8 1.7-2.7a115 115 0 0 0-13.3-25.6 20 20 0 0 1-2.7-5.5 5 5 0 0 0-1.4-2.7c-.7-.9-2.8-4.4-4.6-7.9a39 39 0 0 0-4.1-6.8q-.8-.6-.9-2.4-.2-1.7-1.5-2.4c-.8-.3-1.5-1.5-1.5-2.6q0-1.8-.9-2c-.5 0-2-2.1-3.2-4.8a45 45 0 0 0-3.5-6.2c-.6-.8-3-5.1-5.4-9.5-2.3-4.4-4.6-8.5-5-9s-2.7-4.6-5-9a276 276 0 0 0-14.9-25.5q-.9-.7-5.4-9.3a23 23 0 0 0-2.7-4.7l-2.5-4.5a18 18 0 0 0-3.2-4.8c-.7-.4-1.3-1.6-1.3-2.6s-.7-2.4-1.5-3.1q-1.4-1.2-1.5-2.3c0-.6-.6-1.8-1.4-2.6a64 64 0 0 1-4.1-6.7l-2.9-5.2 4.6-6.8 16.6-26c1.2-2.2 3.1-5.3 4.2-6.9l3-5c.6-1.1 1.9-3.4 3-5l3-5c1.4-2.7 2.8-4.9 7.3-11.8 2-3.1 3.7-6.2 3.7-6.7q.1-1 1-1 1-.1 1-1.1c0-.6 1.8-3.6 4-6.6 2.2-3.1 4-6 4-6.5a26 26 0 0 1 3-5c1.7-2.2 3-4.7 3-5.5q.1-1.3 1.5-1.9 1.3-.7 1.5-2.4 0-1.8.9-2.4c.5-.3 1.9-2.5 3.1-4.8a24 24 0 0 1 2.9-4.8 32 32 0 0 0 2.6-4.5 16 16 0 0 1 3.2-4.8q1.2-.8 1.3-1.9c.1-1.1 1.4-3 3-5.5 1.7-2.4 3-4.8 3-5.3s.6-1.5 1.3-2.2c3.1-3.4 4.8-7.7 3.7-9.8-1-1.9-2-2-33.3-2l-32.2.1-3.2 4.4A21 21 0 0 0 858 18q0 .9-.9 1c-.5 0-1.2 1.2-1.6 2.7-.3 1.5-1 3-1.4 3.3-.7.5-14 22.9-15.4 26l-2.7 4.5c-1.1 1.6-2.9 4.8-4.1 7l-3.9 7-4.5 8A159 159 0 0 1 811 99.2a23 23 0 0 1-2.7 5.1c-1.5 2.3-3.7 6-4.8 8.2l-6.3 11.5a226 226 0 0 0-6.4 12.2q-2.3 4.7-4.1 4.8c-1.8 0-1.9-2.5-1.7-64.8.1-35.6.2-65.5.1-66.5C785 8.1 782.9 8 755 8c-25.2 0-30 .2-30 1.4"/><path d="M660 30.5c-1.4.8-3.5 1.4-4.6 1.5-1.2 0-2.7.7-3.4 1.5q-1.2 1.3-2.5 1.5c-2.4 0-10.3 8.9-13.2 14.8A32.5 32.5 0 0 0 644 87c1 .5 2.4 1.6 3.2 2.2 1.6 1.5 7 4.1 11.9 5.7 4.4 1.4 14.6 1.5 15.4.1.3-.6 1.9-1 3.6-1 1.6 0 2.9-.4 2.9-1s1.1-1.2 2.5-1.6c2-.5 7.1-5.4 12.2-11.8 4.8-5.8 7.1-22.8 3.8-27.2-.8-1-1.5-2.5-1.5-3.3 0-2.8-8.3-12.1-12.5-14.1l-3.5-1.9c-6.4-3.8-17.6-5.1-22-2.6"/><path d="M341.9 109.4c-.4.4-4 1-8.1 1.5-5.5.6-9.7 1.9-16.1 5a34 34 0 0 0-8.7 5.1q-.1 1-1 1c-4.2 0-24 22.5-24 27.2q0 1.7-1 1.8t-1 1.8c0 1-.6 2.6-1.4 3.7A93 93 0 0 0 276 169l-4.1 13.4c-.5 1.6-.9 4.7-.9 7s-.7 6.3-1.5 9c-2.1 7-2.1 49.7 0 57.9.8 3.2 1.5 7.3 1.5 9.2s.6 4.9 1.4 6.7 2.2 5.8 3.1 8.8c1 3 2.2 5.9 2.6 6.4q.8 1.1.9 2.8t.9 1.8c.5 0 1.4 1.2 2 2.7 1.4 3.6 2.9 6 6.3 9.8a55 55 0 0 0 12.3 13.5 17 17 0 0 1 4.1 2.7 51 51 0 0 0 17.1 8.3c1.2 0 2.3.5 2.5 1.2.6 1.8 12.2 3.2 26.8 3.1 14.8-.1 20.9-.7 25.5-2.7 10.4-4.6 18.3-8.8 20-10.5 1-1.2 2.4-2.1 3.1-2.1q1.2 0 1.6-.9c.2-.5 2.3-3.1 4.8-5.8a88 88 0 0 0 18-29.8 208 208 0 0 0 8.6-86c-1-6.6-2.3-14-3.1-16.5l-3-10.5a84 84 0 0 0-29.8-44.5c-.5 0-1.5-.6-2.2-1.3a39 39 0 0 0-11.9-7.1c-4.4-2-10.9-4.1-14.5-4.7a124 124 0 0 0-26.2-1.5M364 155a45 45 0 0 1 10.4 23.5c1.3 6.9 3.6 34.7 3.6 44 0 10.4-2.3 37.3-3.9 46-3.2 17.8-11.6 27.5-23.6 27.5-9.2 0-14.7-5.2-20.6-19.5-5-12.2-7.3-47.9-4.9-75.5 1.1-12 3.5-27.1 4.9-30.5 4.7-11.3 8.6-16.9 13.2-18.8.8-.4 5-.5 9.4-.4 7.7.2 8.1.4 11.5 3.7"/><path d="M547.9 112c-2.6.4-7.7 2.2-11.3 3.9l-7.2 3.1q-.7 0-4.9 3.7-1.2 1.2-2.2 1.3a54 54 0 0 0-12.7 12.5c-3.2 3.5-4.2 2-5.6-8.5q-1.7-14-4.4-14h-24.5c-20.9.1-23.6.3-24.8 1.8-1.2 1.4-1.3 5.5-.7 23.2.4 11.8.8 58.8.8 104.5.1 45.7.5 83.6.9 84.2.6 1 7.2 1.3 27.2 1.3 24.1 0 26.3-.1 27-1.8.4-.9 1.1-33.2 1.5-71.7s1.1-71.7 1.5-73.7c.4-2.1 1.3-4.2 2.1-4.9.8-.6 1.4-1.7 1.4-2.3 0-1.8 6.9-8.8 10.8-10.8a41 41 0 0 1 16.3-4.8c7.2 0 15.2 5.2 18.2 11.8.9 2 1.3 22.5 1.7 80.2l.5 77.5h26.8c25.9.1 26.8 0 28.1-2 1.1-1.6 1.4-17.6 1.7-83.5.3-74.4.2-82-1.3-87.5-3.6-12.7-4.2-14.5-5-14.5q-.7-.2-.8-1.8c0-3.6-16.8-21.2-20.2-21.2-.4 0-3.2-1.1-6.3-2.5a61 61 0 0 0-34.6-3.5"/><path d="M640.1 117.9c-1.2.8-1.3 15.8-.8 104.6.5 75.2 1 104.1 1.8 105.1 1.6 1.9 50.1 2.1 51.7.1 1.2-1.5 2.1-207.6.9-209.5-1-1.4-51.3-1.7-53.6-.3"/></g></svg>